<svg xmlns="http://www.w3.org/2000/svg" viewBox="0 0 48 48" fill="none">
  <g stroke="#caa46d" stroke-linecap="round" stroke-linejoin="round">
    <path d="M2 43V16C2 8.3 8.3 2 16 2h27" stroke-width="1.2"/>
    <path d="M6 31V17C6 11 11 6 17 6h14" stroke-width=".65" opacity=".85"/>
    <path d="M2 23c5-4 10-2 11 2 1 3-2 5-4 3-2-2 0-4 2-3M23 2c-4 5-2 10 2 11 3 1 5-2 3-4-2-2-4 0-3 2" stroke-width="1"/>
    <path d="M12 12c6-3 9-2 11 1-4-1-7 0-9 4 0-4-1-6-2-5ZM12 12c-3 6-2 9 1 11-1-4 0-7 4-9-4 0-6-1-5-2Z" fill="#3a2a3c" stroke-width=".8"/>
    <circle cx="13" cy="13" r="1.7" fill="#ead0ab" stroke-width=".5"/>
  </g>
</svg>
